# xmcd CD database file generated by Grip 3.2.0
# 
# Track frame offsets:
#       150
#       19381
#       38405
#       62141
#       88969
#       98869
#       122283
#       136426
#       159022
# 
# Disc length: 2400 seconds
# 
# Revision: 3
# Processed by: cddbd v1.5.2PL0 Copyright (c) Steve Scherf et al.
# Submitted via: Grip 3.2.0
# 
DISCID=6a095e09
DTITLE=Chet Baker - Quartet Featuring Dick Twardzik
DYEAR=1955
DGENRE=Jazz
TTITLE0=Sad Walk
TTITLE1=Just Duo
TTITLE2=The Girl From Greenland
TTITLE3=Brash
TTITLE4=Rondette
TTITLE5=Piece Caprice
TTITLE6=Mid-Forte
TTITLE7=Re-Search
TTITLE8=Pomp
EXTD=YEAR: 1955
EXTT0=
EXTT1=
EXTT2=
EXTT3=
EXTT4=
EXTT5=
EXTT6=
EXTT7=
EXTT8=
PLAYORDER=
